HIERARCHY
ROOT Hips
{
	OFFSET 0.00000 0.00000 0.00000
	CHANNELS 6 Xposition Yposition Zposition Zrotation Yrotation Xrotation 
	JOINT LHipJoint
	{
		OFFSET 0 0 0
		CHANNELS 3 Zrotation Yrotation Xrotation
		JOINT LeftUpLeg
		{
			OFFSET 1.37959 -1.78713 0.86582
			CHANNELS 3 Zrotation Yrotation Xrotation
			JOINT LeftLeg
			{
				OFFSET 2.54611 -6.99539 0.00000
				CHANNELS 3 Zrotation Yrotation Xrotation
				JOINT LeftFoot
				{
					OFFSET 2.59951 -7.14211 0.00000
					CHANNELS 3 Zrotation Yrotation Xrotation
					JOINT LeftToeBase
					{
						OFFSET 0.18493 -0.50810 1.96120
						CHANNELS 3 Zrotation Yrotation Xrotation
						End Site
						{
							OFFSET 0.00000 -0.00000 1.02054
						}
					}
				}
			}
		}
	}
	JOINT RHipJoint
	{
		OFFSET 0 0 0
		CHANNELS 3 Zrotation Yrotation Xrotation
		JOINT RightUpLeg
		{
			OFFSET -1.33564 -1.78713 0.86582
			CHANNELS 3 Zrotation Yrotation Xrotation
			JOINT RightLeg
			{
				OFFSET -2.52705 -6.94302 0.00000
				CHANNELS 3 Zrotation Yrotation Xrotation
				JOINT RightFoot
				{
					OFFSET -2.55964 -7.03257 0.00000
					CHANNELS 3 Zrotation Yrotation Xrotation
					JOINT RightToeBase
					{
						OFFSET -0.25804 -0.70896 2.12109
						CHANNELS 3 Zrotation Yrotation Xrotation
						End Site
						{
							OFFSET -0.00000 -0.00000 1.11821
						}
					}
				}
			}
		}
	}
	JOINT LowerBack
	{
		OFFSET 0 0 0
		CHANNELS 3 Zrotation Yrotation Xrotation
		JOINT Spine
		{
			OFFSET -0.02031 2.24248 -0.18900
			CHANNELS 3 Zrotation Yrotation Xrotation
			JOINT Spine1
			{
				OFFSET 0.08342 2.24689 -0.03799
				CHANNELS 3 Zrotation Yrotation Xrotation
				JOINT Neck
				{
					OFFSET 0 0 0
					CHANNELS 3 Zrotation Yrotation Xrotation
					JOINT Neck1
					{
						OFFSET -0.11607 1.55844 0.24628
						CHANNELS 3 Zrotation Yrotation Xrotation
						JOINT Head
						{
							OFFSET 0.06877 1.60174 -0.17013
							CHANNELS 3 Zrotation Yrotation Xrotation
							End Site
							{
								OFFSET 0.03358 1.61266 -0.08543
							}
						}
					}
				}
				JOINT LeftShoulder
				{
					OFFSET 0 0 0
					CHANNELS 3 Zrotation Yrotation Xrotation
					JOINT LeftArm
					{
						OFFSET 3.47537 0.55866 -0.72348
						CHANNELS 3 Zrotation Yrotation Xrotation
						JOINT LeftForeArm
						{
							OFFSET 5.38154 -0.00000 0.00000
							CHANNELS 3 Zrotation Yrotation Xrotation
							JOINT LeftHand
							{
								OFFSET 3.33312 -0.00000 0.00000
								CHANNELS 3 Zrotation Yrotation Xrotation
								JOINT LeftFingerBase
								{
									OFFSET 0 0 0
									CHANNELS 3 Zrotation Yrotation Xrotation
									JOINT LeftHandIndex1
									{
										OFFSET 0.71079 -0.00000 0.00000
										CHANNELS 3 Zrotation Yrotation Xrotation
										End Site
										{
											OFFSET 0.57306 -0.00000 0.00000
										}
									}
								}
								JOINT LThumb
								{
									OFFSET 0 0 0
									CHANNELS 3 Zrotation Yrotation Xrotation
									End Site
									{
										OFFSET 0.58181 -0.00000 0.58181
									}
								}
							}
						}
					}
				}
				JOINT RightShoulder
				{
					OFFSET 0 0 0
					CHANNELS 3 Zrotation Yrotation Xrotation
					JOINT RightArm
					{
						OFFSET -3.27844 0.90739 -0.35708
						CHANNELS 3 Zrotation Yrotation Xrotation
						JOINT RightForeArm
						{
							OFFSET -5.16954 -0.00000 0.00000
							CHANNELS 3 Zrotation Yrotation Xrotation
							JOINT RightHand
							{
								OFFSET -3.38287 -0.00000 0.00000
								CHANNELS 3 Zrotation Yrotation Xrotation
								JOINT RightFingerBase
								{
									OFFSET 0 0 0
									CHANNELS 3 Zrotation Yrotation Xrotation
									JOINT RightHandIndex1
									{
										OFFSET -0.81797 -0.00000 0.00000
										CHANNELS 3 Zrotation Yrotation Xrotation
										End Site
										{
											OFFSET -0.65947 -0.00000 0.00000
										}
									}
								}
								JOINT RThumb
								{
									OFFSET 0 0 0
									CHANNELS 3 Zrotation Yrotation Xrotation
									End Site
									{
										OFFSET -0.66953 -0.00000 0.66953
									}
								}
							}
						}
					}
				}
			}
		}
	}
}
MOTION
Frames: 14
Frame Time: 0.047619
0.00 0.00 0.00 -6.5633 7.3144 4.2811 0.0000 0.0000 0.0000 0.3990 -9.5886 -50.5611 15.2508 19.4504 75.9911 1.9658 -16.8887 -26.1517 0.6904 -5.3118 -14.8000 0.0000 0.0000 0.0000 19.6365 -1.9529 -48.6636 -14.7715 -19.3316 74.5476 -2.8257 3.4039 -31.0082 -0.4154 4.1371 -11.4627 0.9350 -1.8149 24.2445 7.6542 -1.2586 3.3443 8.5098 -0.4647 -9.6675 -7.8473 -4.3183 -23.9469 5.5919 -4.3451 13.5555 2.5593 -1.8752 8.4053 0.0000 -0.0000 0.0000 -64.1837 -16.8812 11.3652 100.5333 -59.5766 -69.1091 -0.0000 0.0000 -14.0946 13.8808 21.6520 5.2098 -7.1250 0.0000 -0.0000 -15.0723 51.5977 -2.4965 0.0000 -0.0000 0.0000 60.3232 1.5438 11.6689 -122.6463 55.5625 -87.8513 0.0000 -0.0000 -33.7972 -31.3317 39.2602 -21.0694 7.1250 -0.0000 -0.0000 1.9844 13.7347 2.4000
0.00 0.00 0.00 -2.9594 0.1007 4.7885 0.0000 0.0000 0.0000 -5.1572 -6.5971 -50.4026 15.8574 19.5835 77.8067 2.5753 -12.3025 -28.9676 0.7783 -5.6327 -15.7223 0.0000 0.0000 0.0000 13.6694 1.1459 -50.3604 -15.3588 -19.4755 76.3151 -2.4636 7.0902 -28.3483 -0.2545 3.2456 -8.9634 1.0283 -0.1729 24.6663 5.1385 0.5935 3.8658 4.9535 0.3354 -9.5151 -9.1178 -4.2044 -23.0348 6.0719 -3.9307 12.9956 2.9898 -1.7085 8.0736 -0.0000 0.0000 0.0000 -71.4684 -8.9693 11.9572 111.4980 -58.1796 -78.5041 -0.0000 0.0000 -13.0640 13.4103 21.6718 5.0318 -7.1250 0.0000 -0.0000 -15.5355 51.5386 -2.5535 -0.0000 0.0000 0.0000 52.7620 9.8371 5.3848 -106.7348 58.9149 -74.4399 0.0000 -0.0000 -36.7604 -29.1031 37.2938 -18.6384 7.1250 -0.0000 -0.0000 2.6440 11.0594 3.1051
0.00 0.00 0.00 -1.1830 -5.3541 5.0293 0.0000 0.0000 0.0000 -8.0560 -3.8733 -51.1264 16.2962 19.6679 79.1131 2.8516 -10.1625 -30.4506 0.7576 -5.5589 -15.5097 0.0000 0.0000 0.0000 10.3129 4.5229 -51.8930 -15.6935 -19.5494 77.3173 -2.1911 9.1602 -26.5907 -0.2188 3.0113 -8.3101 1.6561 1.0864 25.6630 3.3154 2.2075 3.8927 2.0131 1.0275 -10.0260 -8.5225 -4.0168 -22.6969 5.2565 -3.7357 12.7753 2.6433 -1.6732 7.8985 -0.0000 0.0000 0.0000 -76.6843 -3.5802 12.2715 116.6649 -57.1351 -82.8704 -0.0000 0.0000 -13.5782 12.6735 21.7754 4.7687 -7.1250 0.0000 -0.0000 -16.2913 51.5171 -2.6745 -0.0000 0.0000 0.0000 46.7798 15.6427 0.7286 -89.8924 60.0000 -59.9068 0.0000 -0.0000 -37.6470 -29.9550 36.7115 -19.0091 7.1250 -0.0000 -0.0000 2.0634 10.7140 2.4124
0.00 0.00 0.00 1.7666 -13.8316 5.5052 0.0000 0.0000 0.0000 -12.6426 0.1473 -53.2195 16.8250 19.7566 80.6806 3.0804 -8.0914 -31.7877 0.4294 -4.2055 -11.6557 0.0000 0.0000 0.0000 4.6287 10.8820 -54.9860 -16.0587 -19.6234 78.4065 -1.8428 11.4509 -24.4816 -0.2249 3.0528 -8.4258 2.3935 3.1637 27.4536 0.3752 4.7772 3.7302 -2.6530 2.0982 -10.8589 -7.8465 -3.8671 -21.7813 4.7539 -3.7047 11.8815 2.3725 -1.6813 7.4241 -0.0000 0.0000 0.0000 -85.1084 5.1091 11.4600 123.3740 -55.3417 -88.4507 -0.0000 0.0000 -13.9427 11.0508 20.0624 3.8329 -7.1250 0.0000 -0.0000 -17.0906 49.6057 -1.9928 -0.0000 0.0000 0.0000 37.5175 23.6152 -7.6272 -61.3614 56.6619 -35.4762 0.0000 -0.0000 -34.4821 -29.3203 36.8202 -18.6029 7.1250 -0.0000 -0.0000 2.4213 10.6387 2.8290
0.00 0.00 0.00 -1.2241 -8.1344 3.7565 0.0000 0.0000 0.0000 -11.4219 -0.6260 -30.9402 6.3002 14.7131 46.1748 1.0932 -4.8825 -18.7395 0.7434 -5.5076 -15.3621 0.0000 0.0000 0.0000 14.9302 3.9152 -31.0953 -5.6414 -14.0716 43.5249 -0.6489 6.1145 -14.3729 -0.1661 2.6253 -7.2372 0.6049 2.9080 19.9132 2.0830 4.0589 4.1957 0.8728 1.9565 -6.6847 -10.5088 -4.5290 -19.5635 9.9597 -4.9090 11.2538 4.4109 -1.9344 7.1563 0.0000 0.0000 0.0000 -82.3447 -1.4354 15.6224 120.3952 -56.2037 -85.9875 -0.0000 0.0000 -9.1299 13.3338 22.1051 5.0967 -7.1250 0.0000 -0.0000 -15.8020 51.9477 -2.7601 0.0000 0.0000 0.0000 57.3236 13.7350 2.4853 -108.6116 58.6498 -76.0451 0.0000 -0.0000 -24.7030 -30.2736 40.9228 -20.9254 7.1250 -0.0000 -0.0000 2.9513 15.0774 3.6215
0.00 0.00 0.00 1.0391 -14.9482 2.6857 0.0000 0.0000 0.0000 -15.0716 3.7161 -28.1107 5.5285 13.9553 43.0587 1.1522 -2.1061 -19.6999 0.4036 -4.0789 -11.2986 0.0000 0.0000 0.0000 11.9207 8.0278 -28.5236 -5.0401 -13.4288 40.9958 -0.4131 8.3210 -12.0240 -0.1432 2.4392 -6.7210 2.0659 4.6078 19.4346 -0.4084 6.3681 4.1046 -3.1270 3.0465 -6.1023 -11.0819 -4.7907 -19.6732 10.4726 -5.1461 10.6969 4.6418 -2.0258 7.0509 0.0000 -0.0000 0.0000 -87.9094 5.1286 14.8129 125.2806 -54.7302 -90.0132 -0.0000 0.0000 -9.0209 13.2285 21.4938 4.9228 -7.1250 0.0000 -0.0000 -15.6330 51.3351 -2.4909 0.0000 -0.0000 0.0000 51.2995 19.7697 -1.0063 -88.8089 59.9946 -58.9685 0.0000 -0.0000 -26.2743 -28.4070 40.1530 -19.2268 7.1250 -0.0000 -0.0000 3.6835 13.7467 4.4613
0.00 0.00 0.00 1.6172 -2.5659 -0.4258 0.0000 0.0000 0.0000 -14.3551 1.1464 -17.2565 3.0862 10.8332 31.7195 0.5244 -8.5371 -13.3506 0.5205 -4.6237 -12.8382 0.0000 0.0000 0.0000 14.1354 4.5048 -16.0194 -3.3378 -11.2227 33.0347 -0.6717 -2.3525 -16.5099 -0.0520 1.4711 -4.0460 -0.1151 0.8102 13.8799 1.8056 1.1617 2.1603 1.7534 0.5864 -5.5403 -10.4807 -3.4561 -22.1445 6.0010 -2.5843 13.7284 3.3805 -1.1735 8.0843 -0.0000 -0.0000 0.0000 -79.7233 -6.1421 19.0393 113.8190 -57.7438 -80.4716 -0.0000 0.0000 -4.2125 11.4955 18.9495 3.7784 -7.1250 0.0000 -0.0000 -16.2264 48.5954 -1.4748 -0.0000 -0.0000 0.0000 56.8526 10.3353 4.7774 -118.3914 56.7236 -84.3172 0.0000 -0.0000 -20.2124 -28.4577 39.6529 -19.0789 7.1250 -0.0000 -0.0000 3.5354 13.2598 4.2591
0.00 0.00 0.00 -1.3934 6.8788 -0.3113 0.0000 0.0000 0.0000 -10.4483 -3.6562 -14.8463 2.3156 9.4947 27.3553 0.1528 -11.6634 -10.2094 0.6091 -4.9952 -13.8948 0.0000 0.0000 0.0000 18.8451 -1.4360 -12.4565 -2.2517 -9.3717 26.9651 -0.4785 -6.9477 -17.4281 -0.0028 0.3412 -0.9376 -1.8603 -1.9515 11.5439 4.7183 -2.5674 1.2722 6.4344 -1.1918 -4.8362 -10.4146 -3.3871 -22.1307 4.6634 -2.2656 14.4182 2.9590 -1.1724 8.2723 0.0000 -0.0000 0.0000 -76.9518 -14.4418 18.7507 96.0800 -59.8599 -65.2630 -0.0000 0.0000 -1.1975 14.7975 19.0390 4.9252 -7.1250 0.0000 -0.0000 -13.1638 49.1660 -1.3740 0.0000 -0.0000 0.0000 65.3205 0.0923 8.6184 -130.9501 52.6051 -94.5826 0.0000 -0.0000 -16.5441 -28.9186 42.1070 -20.3261 7.1250 -0.0000 -0.0000 3.9308 15.8441 4.8643
0.00 0.00 0.00 -4.6354 3.2852 -0.8446 0.0000 0.0000 0.0000 -6.2324 -6.3712 -10.8477 2.1409 9.1536 26.2770 0.5103 -5.4543 -12.7377 0.5810 -4.8808 -13.5688 0.0000 0.0000 0.0000 23.4457 -2.1672 -9.0019 -1.4787 -7.6835 21.7568 -0.3532 -5.4179 -14.5282 -0.0218 0.9536 -2.6212 -3.8047 -2.0598 9.1577 6.9292 -2.8114 0.0239 9.9351 -1.2391 -4.5873 -8.4845 -1.2492 -26.2455 5.0910 0.2908 16.5086 3.2146 0.1934 9.4741 0.0000 -0.0000 0.0000 -71.8820 -18.0210 19.0111 109.3100 -58.5431 -76.6411 -0.0000 -0.0000 22.8444 9.4506 27.8570 4.4475 -7.1250 0.0000 -0.0000 -22.8604 56.6606 -6.7793 0.0000 -0.0000 0.0000 74.6620 -3.9390 25.4187 -139.7048 48.2438 -101.3409 0.0000 0.0000 4.8667 -13.6223 34.7425 -7.8631 7.1250 -0.0000 -0.0000 10.4936 5.0052 11.5574
0.00 0.00 0.00 -2.6014 -7.2413 -1.0956 0.0000 0.0000 0.0000 -10.3126 -2.7758 -5.6664 1.5852 7.9427 22.5401 0.5587 2.5952 -15.3008 0.3355 -3.7222 -10.2964 0.0000 0.0000 0.0000 20.2262 2.2987 -6.0496 -1.1299 -6.7512 18.9804 -0.3082 -1.0847 -10.9381 -0.0184 0.8766 -2.4094 -0.5652 1.1284 7.4509 4.0399 1.6528 -0.7241 4.3442 0.8926 -5.0791 -9.0295 -1.9151 -22.8398 6.9301 -1.1754 17.1994 3.7286 -0.3576 9.2599 0.0000 0.0000 0.0000 -76.7591 -18.5484 28.6119 126.4493 -54.3309 -90.9651 -0.0000 -0.0000 9.0933 11.0959 26.3328 4.9719 -7.1250 0.0000 -0.0000 -20.2318 55.5779 -5.4125 0.0000 0.0000 0.0000 72.3465 11.7894 36.0282 -138.7071 48.8175 -100.5932 0.0000 -0.0000 -2.6208 -22.7142 37.6593 -14.3459 7.1250 -0.0000 -0.0000 6.0616 9.7395 7.0358
0.00 0.00 0.00 -0.3472 -5.8222 -1.5157 0.0000 0.0000 0.0000 -13.6903 -1.3996 -3.4502 1.0313 6.4595 18.1237 0.4132 2.0487 -13.0644 0.4816 -4.4500 -12.3462 0.0000 0.0000 0.0000 16.9288 2.4347 -3.5429 -0.8255 -5.7969 16.1962 -0.2222 -3.4048 -10.8281 -0.0158 0.8114 -2.2299 -0.3576 0.8098 5.9044 2.3459 1.1809 -2.3590 2.5171 0.6444 -5.8284 -9.2868 -2.1269 -20.5076 6.4706 -1.5645 19.1495 3.5806 -0.6692 9.5631 -0.0000 0.0000 0.0000 -95.3633 -23.8449 63.9214 120.9249 -56.0584 -86.4273 -0.0000 0.0000 -5.0164 27.5939 32.2112 15.5676 -7.1250 0.0000 -0.0000 -5.7131 65.3023 -2.8076 -0.0000 0.0000 0.0000 87.4063 20.3241 67.4554 -129.0090 53.3875 -93.0324 0.0000 -0.0000 -21.3936 -35.3443 32.9862 -21.1123 7.1250 -0.0000 -0.0000 -1.7006 8.5152 -1.9344
0.00 0.00 0.00 -0.5190 -5.9186 -1.5829 0.0000 0.0000 0.0000 -15.7883 0.9239 -1.8934 1.1512 6.8125 19.1610 0.6656 -0.3185 -15.3109 0.3993 -4.0573 -11.2380 0.0000 0.0000 0.0000 14.7613 1.3592 0.9564 -0.5204 -4.6232 12.8368 -0.2187 -4.1409 -11.3477 -0.1864 2.7808 -7.6690 -1.0645 0.3084 2.6643 3.3912 0.4550 -1.1056 4.0757 0.2757 -2.6693 -8.5967 -2.0300 -22.5311 3.6440 -0.7986 21.4972 2.6138 -0.6270 10.7043 -0.0000 -0.0000 0.0000 -60.7724 -21.6007 17.8034 140.7265 -47.6335 -102.0994 -0.0000 -0.0000 40.3001 21.5500 32.1429 11.8658 -7.1250 0.0000 -0.0000 -13.0199 63.5652 -5.9128 -0.0000 -0.0000 0.0000 54.5726 24.8728 21.6728 -144.0067 45.5085 -104.4823 0.0000 0.0000 11.5179 -23.2471 31.7256 -12.7290 7.1250 -0.0000 -0.0000 4.7501 3.8512 5.0755
0.00 0.00 0.00 0.3397 -7.6320 -1.3571 0.0000 0.0000 0.0000 -15.5235 0.9930 -2.7828 1.2796 7.1688 20.2165 0.6855 1.1262 -16.0871 0.5666 -4.8211 -13.3989 0.0000 0.0000 0.0000 15.2267 4.1474 -2.5516 -1.1405 -6.7820 19.0711 -0.4265 -2.7542 -13.6539 -0.1608 2.5838 -7.1220 0.7514 0.7539 5.4425 2.0158 1.0886 1.0732 1.5739 0.5417 -1.9720 -12.8266 -0.6447 -16.4803 5.3643 1.2813 15.8151 4.0154 0.3513 7.4725 0.0000 0.0000 0.0000 -69.8629 14.7870 52.2534 144.5619 -45.1225 -104.8770 -0.0000 0.0000 -9.1768 7.4311 21.0799 2.6859 -7.1250 0.0000 -0.0000 -20.9261 50.0221 -2.6948 0.0000 0.0000 0.0000 34.9084 4.3538 27.0625 -139.7735 48.2035 -101.3921 0.0000 -0.0000 -29.0339 -7.7020 34.6696 -4.3991 7.1250 -0.0000 -0.0000 13.6993 4.0597 15.0591
0.00 0.00 0.00 0.3647 -4.4041 -0.1790 0.0000 0.0000 0.0000 -13.2294 1.8464 -16.7503 4.0841 12.2715 36.6993 1.1374 -8.8582 -19.1401 0.4754 -4.4220 -12.2671 0.0000 0.0000 0.0000 15.0658 4.6246 -15.4561 -4.1195 -12.3178 36.8655 -1.1126 -0.6099 -20.1678 -0.2099 2.9497 -8.1387 -0.0223 0.1912 10.2698 1.8673 0.3309 1.6931 1.9102 0.1731 -4.0058 -9.5644 -1.4245 -19.8948 3.0305 0.2180 15.5886 2.5989 -0.1643 8.0971 -0.0000 -0.0000 0.0000 -74.1694 -13.4751 21.3924 128.7356 -53.4929 -92.8128 -0.0000 0.0000 -9.3614 9.2199 21.5081 3.4058 -7.1250 0.0000 -0.0000 -19.4557 50.7024 -2.8261 -0.0000 -0.0000 0.0000 68.8640 10.4223 15.1569 -135.3176 50.6119 -98.0070 0.0000 -0.0000 -26.1264 -31.9619 35.0391 -19.7090 7.1250 -0.0000 -0.0000 0.6099 9.5929 0.7031
